<svg version="1.1" id="Layer_1" xmlns="http://www.w3.org/2000/svg" xmlns:xlink="http://www.w3.org/1999/xlink" x="0px" y="0px"
	 width="100%" viewBox="0 0 800 800" enable-background="new 0 0 800 800" xml:space="preserve">
<path fill="#FFFFFF" opacity="1.000000" stroke="none" 
	d="
M547.000000,801.000000 
	C449.979095,801.000000 352.958221,801.000000 255.468658,800.531372 
	C255.000000,670.657471 255.000015,541.252258 254.999908,411.847046 
	C254.999893,410.514679 255.108185,409.171570 254.978882,407.851776 
	C254.307388,400.998596 254.286179,401.000122 247.319580,401.000092 
	C165.213058,400.999969 83.106529,401.000000 1.000000,401.000000 
	C1.000000,336.645782 1.000000,272.291534 1.462638,207.468658 
	C268.283508,207.000000 534.641785,207.000000 801.000000,207.000000 
	C801.000000,271.354218 801.000000,335.708466 800.531372,400.531342 
	C715.835938,401.000000 631.609192,401.000000 547.000000,401.000000 
	C547.000000,534.606689 547.000000,667.803345 547.000000,801.000000 
z"/>
<path fill="#000000" opacity="1.000000" stroke="none" 
	d="
M801.000000,206.537369 
	C534.641785,207.000000 268.283508,207.000000 1.462638,207.000000 
	C1.000000,138.357437 1.000000,69.714882 1.000000,1.036160 
	C267.548950,1.036160 534.097900,1.036160 801.000000,1.036160 
	C801.000000,69.357841 801.000000,137.716293 801.000000,206.537369 
z"/>
<path fill="#000000" opacity="1.000000" stroke="none" 
	d="
M547.468628,801.000000 
	C547.000000,667.803345 547.000000,534.606689 547.000000,401.000000 
	C631.609192,401.000000 715.835938,401.000000 800.531372,401.000000 
	C801.000000,534.244080 801.000000,667.488220 801.000000,801.000000 
	C716.645935,801.000000 632.291626,801.000000 547.468628,801.000000 
z"/>
<path fill="#000000" opacity="1.000000" stroke="none" 
	d="
M1.000000,401.468658 
	C83.106529,401.000000 165.213058,400.999969 247.319580,401.000092 
	C254.286179,401.000122 254.307388,400.998596 254.978882,407.851776 
	C255.108185,409.171570 254.999893,410.514679 254.999908,411.847046 
	C255.000015,541.252258 255.000000,670.657471 255.000000,800.531372 
	C170.389984,801.000000 85.779968,801.000000 1.000000,801.000000 
	C1.000000,667.979126 1.000000,534.958252 1.000000,401.468658 
z"/>
</svg>